<svg width="27.334" height="27.333" xmlns="http://www.w3.org/2000/svg">

 <g>
  <title>background</title>
  <rect fill="none" id="canvas_background" height="402" width="582" y="-1" x="-1"/>
 </g>
 <g>
  <title>Layer 1</title>
  <path fill="#ffffff" id="svg_1" d="m20.872,13.666l5.152,-5.152c1.743999,-1.744 1.743999,-4.583 0.001999,-6.329l-0.879,-0.877c-0.838999,-0.843 -1.963999,-1.308 -3.164,-1.308c-1.197001,0 -2.320999,0.464 -3.164,1.309l-5.152,5.152l-5.153,-5.153c-0.842,-0.843 -1.966,-1.308 -3.163,-1.308c-1.199,0 -2.324,0.465 -3.167,1.31l-0.874,0.873c-1.744,1.748 -1.744,4.587 -0.002,6.329999l5.153,5.153001l-5.152,5.153c-1.744,1.744999 -1.744,4.584 -0.001,6.327999l0.877,0.877001c0.844,0.844 1.968,1.309 3.165,1.309c1.198,0 2.322,-0.465 3.165,-1.309999l5.151999,-5.151001l5.152,5.152c0.843,0.844 1.966999,1.309 3.164,1.309s2.322001,-0.465 3.166,-1.309l0.875,-0.875999c1.743999,-1.745001 1.743999,-4.584002 0.001999,-6.328001l-5.153999,-5.153999zm3.738001,10.067999l-0.875,0.876001c-0.481001,0.48 -1.116001,0.723 -1.752001,0.723c-0.635,0 -1.268999,-0.24 -1.75,-0.723l-6.566,-6.566l-6.567,6.566c-0.481,0.48 -1.115,0.723 -1.75,0.723c-0.635,0 -1.27,-0.24 -1.751,-0.723l-0.876,-0.876001c-0.962,-0.962999 -0.962,-2.538 0,-3.500999l6.566,-6.566999l-6.566,-6.566c-0.962,-0.963 -0.962,-2.538 0,-3.502l0.876,-0.875c0.481,-0.483 1.116,-0.723 1.751,-0.723c0.635,0 1.27,0.24 1.75,0.722l6.567,6.567l6.566,-6.567c0.482,-0.482 1.118,-0.722 1.75,-0.722c0.636,0 1.271,0.24 1.752001,0.723l0.875,0.875c0.962999,0.964 0.962999,2.539 0,3.502l-6.566,6.566l6.566,6.566999c0.962999,0.962999 0.962999,2.538 0,3.500999z"/>
 </g>
</svg>