<?xml version="1.0" ?><svg height="400px" version="1.1" viewBox="0 0 400 400" width="400px" xmlns="http://www.w3.org/2000/svg" xmlns:xlink="http://www.w3.org/1999/xlink"><title/><desc/><defs><path d="M145.819832,100.838775 C163.258075,84.7519616 184.687105,77.8416534 201.874909,60.9790182 C228.364612,34.9904623 195.018964,-12.6560239 161.715544,3.72113001 C144.730574,12.073589 138.713492,34.1788752 137.228072,51.0373625 C135.669698,68.7238201 140.597621,79.0717831 145.627167,95.5958301 L145.819832,100.838775 L145.819832,100.838775 Z" id="path-1"/><filter filterUnits="objectBoundingBox" height="200%" id="filter-2" width="200%" x="-50%" y="-50%"><feMorphology in="SourceAlpha" operator="dilate" radius="4" result="shadowSpreadOuter1"/><feOffset dx="0" dy="2" in="shadowSpreadOuter1" result="shadowOffsetOuter1"/><feMorphology in="SourceAlpha" operator="erode" radius="4" result="shadowInner"/><feOffset dx="0" dy="2" in="shadowInner" result="shadowInner"/><feComposite in="shadowOffsetOuter1" in2="shadowInner" operator="out" result="shadowOffsetOuter1"/><feGaussianBlur in="shadowOffsetOuter1" result="shadowBlurOuter1" stdDeviation="1"/><feColorMatrix in="shadowBlurOuter1" type="matrix" values="0 0 0 0 0   0 0 0 0 0   0 0 0 0 0  0 0 0 0.5 0"/></filter><path d="M210.979917,206.512132 L208.910685,214.234611 L173.96786,344.643008 C173.682807,345.706844 172.578091,346.335163 171.528858,346.054022 L1.50794269,300.497055 C0.445972772,300.212501 -0.183398645,299.117761 0.101211702,298.05558 L35.0440365,167.647183 L38.149073,156.059029 L39.3137995,151.71221 L87.7037046,84.3070601 C88.3465551,83.4115958 89.7340431,82.9178176 90.8068009,83.2052622 L202.839675,113.22438 C203.910617,113.511338 204.867457,114.636352 204.976136,115.730113 L213.180453,198.29964 L210.980406,206.510313 C210.980243,206.51092 210.98008,206.511526 210.979917,206.512132 L210.979917,206.512132 Z" id="path-3"/><filter filterUnits="objectBoundingBox" height="200%" id="filter-4" width="200%" x="-50%" y="-50%"><feOffset dx="0" dy="2" in="SourceAlpha" result="shadowOffsetOuter1"/><feGaussianBlur in="shadowOffsetOuter1" result="shadowBlurOuter1" stdDeviation="2"/><feColorMatrix in="shadowBlurOuter1" type="matrix" values="0 0 0 0 0   0 0 0 0 0   0 0 0 0 0  0 0 0 0.5 0"/></filter><path d="M123.529524,185.148146 C144.868168,190.865818 166.801646,178.202519 172.519319,156.863874 C178.236991,135.52523 165.573692,113.591752 144.235047,107.87408 C122.896403,102.156407 100.962925,114.819707 95.2452526,136.158351 C89.5275802,157.496995 102.19088,179.430473 123.529524,185.148146 L123.529524,185.148146 Z" id="path-5"/><filter filterUnits="objectBoundingBox" height="200%" id="filter-6" width="200%" x="-50%" y="-50%"><feOffset dx="0" dy="2" in="SourceAlpha" result="shadowOffsetOuter1"/><feGaussianBlur in="shadowOffsetOuter1" result="shadowBlurOuter1" stdDeviation="2"/><feColorMatrix in="shadowBlurOuter1" type="matrix" values="0 0 0 0 0   0 0 0 0 0   0 0 0 0 0  0 0 0 0.5 0"/></filter></defs><g fill="none" fill-rule="evenodd" id="Page-1" stroke="none" stroke-width="1"><g id="label"><path d="M200,400 C310.45695,400 400,310.45695 400,200 C400,89.54305 310.45695,0 200,0 C89.54305,0 0,89.54305 0,200 C0,310.45695 89.54305,400 200,400 Z" fill="#82A3A1" id="background"/><g id="Group-5" transform="translate(75.000000, 26.000000)"><g id="Path-12"><use fill="black" fill-opacity="1" filter="url(#filter-2)" xlink:href="#path-1"/><use stroke="#545E75" stroke-width="8" xlink:href="#path-1"/></g><g id="Combined-Shape"><use fill="black" fill-opacity="1" filter="url(#filter-4)" xlink:href="#path-3"/><use fill="#F2ECD2" fill-rule="evenodd" xlink:href="#path-3"/></g><g id="Oval-9"><use fill="black" fill-opacity="1" filter="url(#filter-6)" xlink:href="#path-5"/><use fill="#EE7674" fill-rule="evenodd" xlink:href="#path-5"/></g></g></g></g></svg>