<?xml version="1.0" ?><svg enable-background="new 0 0 500 500" id="Layer_1" version="1.1" viewBox="0 0 500 500" xml:space="preserve" xmlns="http://www.w3.org/2000/svg" xmlns:xlink="http://www.w3.org/1999/xlink"><g><circle cx="251.079" cy="223.991" fill="#4384EC" r="195.684"/><path d="M251.079,52.961c-94.457,0-171.03,76.573-171.03,171.03s76.573,171.03,171.03,171.03   s171.03-76.573,171.03-171.03S345.536,52.961,251.079,52.961z M251.079,382.846c-87.733,0-158.854-71.122-158.854-158.854   S163.346,65.137,251.079,65.137s158.854,71.122,158.854,158.854S338.811,382.846,251.079,382.846z" fill="#2666CE"/><path d="M251.079,88.184L251.079,88.184c-3.145,0-5.695-2.55-5.695-5.695V47.785c0-3.145,2.55-5.695,5.695-5.695   l0,0c3.145,0,5.695,2.55,5.695,5.695v34.704C256.774,85.634,254.224,88.184,251.079,88.184z" fill="#2666CE"/><path d="M251.079,405.893L251.079,405.893c-3.145,0-5.695-2.55-5.695-5.695v-34.704c0-3.145,2.55-5.695,5.695-5.695   l0,0c3.145,0,5.695,2.55,5.695,5.695v34.704C256.774,403.343,254.224,405.893,251.079,405.893z" fill="#2666CE"/><path d="M115.272,223.991L115.272,223.991c0,3.145-2.55,5.695-5.695,5.695H74.872c-3.145,0-5.695-2.55-5.695-5.695   v0c0-3.145,2.55-5.695,5.695-5.695h34.704C112.722,218.296,115.272,220.846,115.272,223.991z" fill="#2666CE"/><path d="M432.981,223.991L432.981,223.991c0,3.145-2.55,5.695-5.695,5.695h-34.704c-3.145,0-5.695-2.55-5.695-5.695   v0c0-3.145,2.55-5.695,5.695-5.695h34.704C430.431,218.296,432.981,220.846,432.981,223.991z" fill="#2666CE"/><path d="M155.049,320.021L155.049,320.021c2.224,2.224,2.224,5.83,0,8.054l-24.54,24.54   c-2.224,2.224-5.83,2.224-8.054,0h0c-2.224-2.224-2.224-5.83,0-8.054l24.54-24.54C149.218,317.797,152.824,317.797,155.049,320.021   z" fill="#2666CE"/><path d="M379.703,95.367L379.703,95.367c2.224,2.224,2.224,5.83,0,8.054l-24.54,24.54   c-2.224,2.224-5.83,2.224-8.054,0v0c-2.224-2.224-2.224-5.83,0-8.054l24.54-24.54C373.872,93.143,377.479,93.143,379.703,95.367z" fill="#2666CE"/><path d="M155.049,127.961L155.049,127.961c-2.224,2.224-5.83,2.224-8.054,0l-24.54-24.54   c-2.224-2.224-2.224-5.83,0-8.054l0,0c2.224-2.224,5.83-2.224,8.054,0l24.54,24.54   C157.273,122.131,157.273,125.737,155.049,127.961z" fill="#2666CE"/><path d="M379.703,352.615L379.703,352.615c-2.224,2.224-5.83,2.224-8.054,0l-24.54-24.54   c-2.224-2.224-2.224-5.83,0-8.054l0,0c2.224-2.224,5.83-2.224,8.054,0l24.54,24.54   C381.927,346.785,381.927,350.391,379.703,352.615z" fill="#2666CE"/><g><path d="M251.079,28.307c-108.073,0-195.684,87.611-195.684,195.684c0,108.073,87.611,195.684,195.684,195.684    s195.684-87.611,195.684-195.684C446.763,115.918,359.152,28.307,251.079,28.307z M251.079,395.021    c-94.457,0-171.03-76.573-171.03-171.03s76.573-171.03,171.03-171.03s171.03,76.573,171.03,171.03    S345.536,395.021,251.079,395.021z" fill="#4384EC"/></g><path d="M255.773,231.991c-0.487,0-0.978-0.045-1.465-0.135c-2.306-0.43-4.308-1.85-5.475-3.885l-64.438-112.327   c-2.198-3.832-0.874-8.722,2.959-10.92c3.834-2.198,8.723-0.873,10.92,2.959l59.758,104.17l55.096-44.715   c3.431-2.783,8.47-2.259,11.253,1.171c2.784,3.431,2.26,8.469-1.171,11.253l-62.396,50.641   C259.377,231.369,257.594,231.991,255.773,231.991z" fill="#FFFFFF"/><g><path d="M317.23,358.428c-9.838-8.834-24.139-15.353-45.005-20.516l-21.82-5.557    c-35.017-8.754-39.839-20.034-39.839-30.92c0-19.576,19.312-34.338,44.921-34.338c13.162,0,25.186,3.523,33.856,9.921    c8.179,6.035,12.809,13.709,13.388,22.825c0.268,4.213,3.763,7.157,7.984,7.157h10.721c2.181,0,4.267-0.555,5.776-2.129    s2.31-3.529,2.217-5.707c-0.695-16.37-8.586-31.207-22.433-41.929C296.605,249.188,283,244.01,269,242.052V215.5    c0-3.719-3.25-7.5-6.969-7.5h-13.399c-3.719,0-6.632,3.782-6.632,7.5v26.72c-14,2.13-26.639,7.463-36.679,15.533    C191.329,269,183.598,284.61,183.598,301.7c0,14.507,5.15,26.581,15.331,35.881c9.479,8.66,23.647,15.307,43.327,20.319    c0.022,0.006,0.041,0.012,0.063,0.017l23.203,5.7c33.678,8.489,40.587,19.255,40.587,32.804c0,6.108-1.632,11.752-4.771,16.727    c10.913-2.892,21.45-6.702,31.527-11.344c0.2-2.041,0.313-4.108,0.313-6.204C333.177,380.169,327.907,368.016,317.23,358.428z" fill="#3879E3"/><path d="M204.986,394.815c-0.258-4.221-3.757-7.815-7.985-7.815h-10.721c-2.191,0-4.287,1.203-5.797,2.791    c-1.51,1.588-2.213,3.878-2.103,6.066c0.178,3.549,0.65,7.031,1.368,10.362c10.949,4.288,22.382,7.543,34.189,9.812    C208.668,410.136,205.48,402.88,204.986,394.815z" fill="#3879E3"/></g><path d="M317.23,344.428c-9.838-8.834-24.139-15.353-45.005-20.516l-21.82-5.557   c-35.017-8.754-39.839-20.034-39.839-30.92c0-19.576,19.312-34.338,44.921-34.338c13.162,0,25.186,3.523,33.856,9.921   c8.179,6.035,12.809,13.709,13.388,22.825c0.268,4.213,3.763,7.157,7.984,7.157h10.721c2.181,0,4.267-0.555,5.776-2.129   s2.31-3.529,2.217-5.707c-0.695-16.37-8.586-31.207-22.433-41.929C296.605,235.188,283,230.01,269,228.052V201.5   c0-3.719-3.25-7.5-6.969-7.5h-13.399c-3.719,0-6.632,3.782-6.632,7.5v26.72c-14,2.13-26.639,7.463-36.679,15.533   C191.329,255,183.598,270.61,183.598,287.7c0,14.507,5.15,26.581,15.33,35.881c9.479,8.66,23.647,15.307,43.327,20.319   c0.022,0.006,0.041,0.012,0.063,0.017l23.203,5.7c33.678,8.489,40.587,19.255,40.587,32.804c0,10.062-4.403,18.875-12.732,25.487   c-8.842,7.019-21.527,10.885-35.718,10.885c-29.654,0-51.314-15.796-52.671-37.979c-0.258-4.221-3.757-7.815-7.985-7.815h-10.721   c-2.191,0-4.287,1.203-5.797,2.791c-1.51,1.588-2.253,3.878-2.143,6.066C179.98,414.481,205,438.507,242,443.632v22.197   c0,3.719,2.914,6.172,6.632,6.172h13.399c3.719,0,6.969-2.453,6.969-6.172v-21.777c17-1.782,31.275-7.406,42.506-16.547   c14-11.395,21.651-27.692,21.651-45.905C333.157,366.169,327.907,354.016,317.23,344.428z" fill="#FECC5D"/></g></svg>